<?xml version="1.0" encoding="utf-8"?>
<!-- Generator: Adobe Illustrator 21.0.0, SVG Export Plug-In . SVG Version: 6.00 Build 0)  -->
<svg version="1.1" id="图层_1" xmlns="http://www.w3.org/2000/svg" xmlns:xlink="http://www.w3.org/1999/xlink" x="0px" y="0px"
	 viewBox="0 0 200 200" style="enable-background:new 0 0 200 200;" xml:space="preserve">
<style type="text/css">
	.st0{fill:#BEC9D7;}
</style>
<path class="st0" d="M187.8,80.9v99.6c0,10.8-8.3,19.5-18.7,19.5H30.9c-10.3,0-18.7-8.7-18.7-19.4V19.4C12.1,8.7,20.6,0,30.8,0h79.3
	v68.2c0,7,5.5,12.7,12.2,12.7H187.8z M184.3,68.2l-62-64.7v64.6c0,0,0,0,0,0H184.3z M43,80.9h40.6c3.4,0,6.1-2.9,6.1-6.4
	c0-3.5-2.7-6.3-6.1-6.3H43c-3.4,0-6.1,2.8-6.1,6.3S39.7,80.9,43,80.9z M43,123.3h113.8c3.4,0,6.1-2.8,6.1-6.3c0-3.5-2.7-6.4-6.1-6.4
	H43c-3.4,0-6.1,2.8-6.1,6.4C36.9,120.4,39.7,123.3,43,123.3z"/>
</svg>
