<?xml version="1.0" encoding="utf-8"?>
<!-- Generator: Adobe Illustrator 21.0.0, SVG Export Plug-In . SVG Version: 6.00 Build 0)  -->
<svg version="1.1" id="图层_1" xmlns="http://www.w3.org/2000/svg" xmlns:xlink="http://www.w3.org/1999/xlink" x="0px" y="0px"
	 viewBox="0 0 174.8 175" style="enable-background:new 0 0 174.8 175;" xml:space="preserve">
<style type="text/css">
	.st0{fill:#999999;}
</style>
<path class="st0" d="M174.7,167.4c-3-35.5-27.2-64.9-60.1-75.5c13.8-8.9,22.9-24.2,22.9-41.9c0-27.6-22.5-50-50.1-50
	C59.6,0,37.3,22.4,37.3,50c0,17.6,9.1,33,22.9,41.9c-33,10.6-57.2,40-60.2,75.5c0,0.6-0.1,1.1,0,2c0.2,3.1,3,5.6,6.1,5.6
	c3.5,0,6.2-2.9,6.2-6.2c3.2-38.6,35.6-68.8,75-68.8s71.6,30.1,75,68.8c0,3.4,2.8,6.2,6.2,6.2c3.1,0,5.9-2.5,6.1-5.6
	C174.8,168.5,174.7,168,174.7,167.4z M49.7,50c0-20.7,16.9-37.5,37.6-37.5S125,29.3,125,50s-16.9,37.5-37.7,37.5S49.7,70.7,49.7,50z
	"/>
</svg>
