<?xml version="1.0" encoding="utf-8"?>
<!-- Generator: Adobe Illustrator 21.0.0, SVG Export Plug-In . SVG Version: 6.00 Build 0)  -->
<svg version="1.1" id="图层_1" xmlns="http://www.w3.org/2000/svg" xmlns:xlink="http://www.w3.org/1999/xlink" x="0px" y="0px"
	 viewBox="0 0 174.8 175" style="enable-background:new 0 0 174.8 175;" xml:space="preserve">
<style type="text/css">
	.st0{fill:#999999;}
</style>
<g>
	<path class="st0" d="M87.4,87.6c1.7,0,3.2-0.7,4.4-1.9c1.2-1.2,1.8-2.8,1.8-4.4v-75c0-3.4-2.8-6.2-6.2-6.2s-6.2,2.8-6.2,6.2v75.1
		C81.2,84.8,84,87.6,87.4,87.6z"/>
	<path class="st0" d="M157.5,61.3c-6.4-11-15.5-20.3-26.5-27.1c-2.9-1.8-6.8-0.9-8.6,2c-1.8,2.9-0.9,6.8,2,8.6
		C143.5,56.8,155,76.8,155,98.5c0,17-7,33.1-19.7,45.2c-12.8,12.2-29.8,18.9-47.9,18.9c-18.1,0-35.1-6.7-47.9-18.9
		c-12.7-12.1-19.7-28.1-19.7-45.2c0-10.9,2.9-21.7,8.5-31.2c5.4-9.2,13.3-17.1,22.7-22.8c1.4-0.9,2.5-2.3,2.9-3.9
		c0.4-1.6,0.1-3.3-0.7-4.7c-0.9-1.4-2.3-2.5-3.9-2.9c-1.6-0.4-3.3-0.1-4.7,0.7c-11.1,6.7-20.5,16.1-27,27.1
		C10.8,72.3,7.3,85.3,7.3,98.5c0,10.4,2.1,20.4,6.3,29.9c4.1,9.1,9.9,17.3,17.2,24.3c7.3,7,15.8,12.5,25.5,16.4c9.9,4,20.3,6,31.1,6
		c10.8,0,21.3-2,31.1-5.9c9.5-3.8,18-9.3,25.4-16.4c7.4-7,13.1-15.2,17.2-24.3c4.2-9.5,6.3-19.5,6.3-29.9
		C167.5,85.5,164,72.6,157.5,61.3z"/>
</g>
</svg>
